# xmcd
#
# Track frame offsets: 
#        150
#        10490
#        25597
#        40496
#        52019
#        68023
#        80046
#        95104
#        111294
#        125566
#        138939
#        150145
#        162096
#        170446
#        178958
#        196204
#        204818
#        225324
#        232463
#        246437
#
# Disc length: 3431 seconds
#
# Revision: 1
# Processed by: cddbd v1.5.2PL0 Copyright (c) Steve Scherf et al.
# Submitted via: ExactAudioCopyFreeDBPlugin 1.0
#
DISCID=110d6514
DTITLE=Billie Jo Spears - Country Girl Favourite Songs
DYEAR=2003
DGENRE=Country
TTITLE0=I'm Gonna Be A Country Girl Again
TTITLE1=Blanket On The Ground
TTITLE2=Crystal Chandeliers
TTITLE3=Silver Threads And Golden Needles
TTITLE4=Queen Of The Silver Dollar
TTITLE5=Misty Blue
TTITLE6=It's A Heartache
TTITLE7=Fire And Rain
TTITLE8=Cryin' Time
TTITLE9=Fever
TTITLE10=Tennesse Waltz
TTITLE11=This Old House
TTITLE12=Rocky Top
TTITLE13=Blue, Blue Day
TTITLE14=For The Good Times
TTITLE15=Here You Come Again
TTITLE16=Just The Way You Are
TTITLE17=Blue Bayou
TTITLE18=I Know I'll Never Love This Way Again
TTITLE19=All I Have To Do Is Dream
EXTD=
EXTT0=
EXTT1=
EXTT2=
EXTT3=
EXTT4=
EXTT5=
EXTT6=
EXTT7=
EXTT8=
EXTT9=
EXTT10=
EXTT11=
EXTT12=
EXTT13=
EXTT14=
EXTT15=
EXTT16=
EXTT17=
EXTT18=
EXTT19=
PLAYORDER=
